<svg xmlns="http://www.w3.org/2000/svg" viewBox="0 0 64 64" role="img" aria-label="Clínica Dental Elgorriaga">
  <rect width="64" height="64" rx="14" fill="#3843ac"/>
  <!-- diente -->
  <path fill="#ffffff" d="M32 13c-6.6 0-9.5 3.2-13.8 3.2-3.2 0-5.2-1.2-6.7-1.2-2 0-3 1.8-3 5.4 0 5.7 2 11.4 3.6 17.2 1.2 4.4 1.7 11.1 4.4 13.6 1 .9 2.2 1.1 3.1.2 1.6-1.6 2.2-6.2 3.1-9.9.7-2.9 1.7-4.6 3.3-4.6h.1c1.6 0 2.6 1.7 3.3 4.6.9 3.7 1.5 8.3 3.1 9.9.9.9 2.1.7 3.1-.2 2.7-2.5 3.2-9.2 4.4-13.6C50.4 41.4 52.4 35.7 52.4 30c0-3.6-1-5.4-3-5.4-1.5 0-3.5 1.2-6.7 1.2C38.4 25.8 35.5 22.6 32 13z" opacity="0.96"/>
  <!-- destello / sparkle aqua -->
  <path fill="#4fc9d4" d="M44 20.5l1.3 3.2 3.2 1.3-3.2 1.3-1.3 3.2-1.3-3.2-3.2-1.3 3.2-1.3z"/>
</svg>
